<svg class="h-12 md:h-16" viewBox="0 0 146 22" fill="none" xmlns="http://www.w3.org/2000/svg">
<path d="M58.115 0H66.0788C66.4208 0.342522 68.7832 3.26922 73.1658 8.77956L73.2099 8.83956H73.2715C77.7939 3.14843 80.1717 0.201652 80.4029 0H88.3667L88.4262 0.0451296H88.4729L76.6563 14.2797V21.7283L76.5501 21.8345H69.8716L69.7803 21.7283V14.2797L58.0093 0.106173L58.115 0ZM29.6614 0.634959H39L50.364 16.4857V0.741391L50.4537 0.634959H55.7575L55.8631 0.741391V21.7283L55.7575 21.8345H46.4497C46.2485 21.6227 42.4855 16.355 35.1621 6.02922L35.101 5.98409V5.93843H35.057V21.7283L34.9505 21.8345H29.6614L29.556 21.7283V0.741391L29.6614 0.634959ZM109.601 8.49209C106.618 2.93139 105.068 0.110608 104.947 0.0302601H96.2734L96.2277 0.075913L84.336 21.6076L84.4414 21.7137H91.8759L100.534 5.62096C100.706 5.84243 102.106 8.40652 104.735 13.3124V13.3578H102.439L101.607 13.3124L100.792 13.3578H97.7687L95.1997 17.9215V18.0263H98.7368L99.401 18.073L100.126 18.0263H107.198L107.456 18.3287C108.624 20.585 109.258 21.7137 109.359 21.7137H116.779L116.84 21.6689L109.601 8.49209ZM119.105 0.408H141.483C143.529 0.408 144.899 1.50678 145.594 3.70226C145.664 4.12513 145.731 4.37713 145.79 4.45748V9.36861L145.488 10.5318C144.722 12.4662 143.408 13.4335 141.545 13.4335H129.939L125.678 9.17296V9.12704H139.611V5.1227H125.18V5.16835L125.135 21.7897L125.073 21.8348H119.105L118.999 21.7283V0.514435L119.105 0.408ZM26.8964 0.393128V4.17704L20.7313 0.51991V0.393128L20.8374 0.286954H26.7905L26.8964 0.393128ZM20.7315 4.24252V17.4989H6.16453V4.24252H0V17.3476L0.150958 18.5262C0.825738 20.7316 2.23617 21.8345 4.3819 21.8345H22.5141C23.3405 21.8345 24.0866 21.6493 24.7503 21.2763C26.1809 20.3084 26.8967 18.9989 26.8967 17.3476V4.24252H20.7315ZM6.16456 0.393128V4.18748L3.18443e-05 0.530867V0.393128L0.104727 0.286954H6.0588L6.16456 0.393128Z" fill="#FFFFFF"/>
</svg>
